<?xml version="1.0" encoding="UTF-8" standalone="no"?>
<!DOCTYPE svg PUBLIC "-//W3C//DTD SVG 1.1//EN" "http://www.w3.org/Graphics/SVG/1.1/DTD/svg11.dtd">
<svg width="100%" height="100%" viewBox="0 0 38 29" version="1.1" xmlns="http://www.w3.org/2000/svg" xmlns:xlink="http://www.w3.org/1999/xlink" xml:space="preserve" xmlns:serif="http://www.serif.com/" style="fill-rule:evenodd;clip-rule:evenodd;stroke-linejoin:round;stroke-miterlimit:2;">
    <path d="M29.25,0c-3.765,0 -6.945,2.543 -7.928,6l-18.322,0c-1.658,0 -3,1.342 -3,3l0,16.5c0,1.657 1.342,3 3,3l28.5,0c1.658,0 3,-1.343 3,-3l0,-10.89c1.83,-1.515 3,-3.803 3,-6.36c0,-4.553 -3.697,-8.25 -8.25,-8.25Zm3.75,25.5c0,0.825 -0.675,1.5 -1.5,1.5l-28.5,0c-0.825,0 -1.5,-0.675 -1.5,-1.5l0,-14.385l14.145,9.007c0.968,0.608 2.242,0.608 3.218,-0.007l6.907,-4.395c1.058,0.495 2.235,0.78 3.48,0.78c1.35,0 2.625,-0.33 3.75,-0.908l0,9.908Zm-8.068,-6.568c-0.293,0.293 -0.293,0.768 0,1.061c0,-0 4.913,4.912 4.913,4.912c0.29,0.291 0.77,0.291 1.06,0c0.293,-0.293 0.293,-0.767 0,-1.06l-4.912,-4.913c-0.293,-0.293 -0.768,-0.293 -1.061,0Zm-16.425,0l-4.912,4.913c-0.293,0.293 -0.293,0.767 -0,1.06c0.29,0.291 0.77,0.29 1.06,0l4.913,-4.912c0.293,-0.293 0.293,-0.768 -0,-1.061c-0.293,-0.293 -0.768,-0.293 -1.061,0Zm-7.007,-9.932c-0,-0.825 0.675,-1.5 1.5,-1.5l18.037,0c-0.022,0.247 -0.037,0.495 -0.037,0.75c0,2.707 1.313,5.1 3.33,6.608l-6.27,3.99c-0.495,0.314 -1.125,0.314 -1.613,0.007l-14.947,-9.517l0,-0.338Zm27.75,6c-3.72,-0 -6.75,-3.03 -6.75,-6.75c0,-3.72 3.03,-6.75 6.75,-6.75c3.72,-0 6.75,3.03 6.75,6.75c0,3.72 -3.03,6.75 -6.75,6.75Zm0,-12c-2.895,-0 -5.25,2.355 -5.25,5.25c0,2.895 2.355,5.25 5.25,5.25c0.414,-0 0.75,-0.336 0.75,-0.75c0,-0.414 -0.336,-0.75 -0.75,-0.75c-2.068,-0 -3.75,-1.682 -3.75,-3.75c0,-2.068 1.682,-3.75 3.75,-3.75c2.068,-0 3.75,1.682 3.75,3.75c0,0.413 -0.337,0.75 -0.75,0.75c-0.413,-0 -0.75,-0.337 -0.75,-0.75c0,-1.241 -1.009,-2.25 -2.25,-2.25c-1.241,-0 -2.25,1.009 -2.25,2.25c0,1.241 1.009,2.25 2.25,2.25c0.578,-0 1.101,-0.225 1.5,-0.585c0.399,0.36 0.922,0.585 1.5,0.585c1.241,-0 2.25,-1.009 2.25,-2.25c0,-2.895 -2.355,-5.25 -5.25,-5.25Zm0,6c-0.413,-0 -0.75,-0.337 -0.75,-0.75c0,-0.413 0.337,-0.75 0.75,-0.75c0.413,-0 0.75,0.337 0.75,0.75c0,0.413 -0.337,0.75 -0.75,0.75Z" style="fill:#43d66f;fill-rule:nonzero;"/>
</svg>
