<?xml version="1.0" encoding="UTF-8" standalone="no"?>
<!DOCTYPE svg PUBLIC "-//W3C//DTD SVG 1.1//EN" "http://www.w3.org/Graphics/SVG/1.1/DTD/svg11.dtd">
<svg width="100%" height="100%" viewBox="0 0 24 24" version="1.1" xmlns="http://www.w3.org/2000/svg" style="fill-rule:evenodd;clip-rule:evenodd;stroke-linejoin:round;stroke-miterlimit:2;overflow:visible;">
    <path d="M24.089,12.045c0,-6.653 -5.391,-12.045 -12.044,-12.045c-6.653,0 -12.045,5.392 -12.045,12.045c-0,5.646 3.891,10.388 9.137,11.692l0,-8.013l-2.484,-0l-0,-3.679l2.484,-0l0,-1.586c0,-4.098 1.854,-5.999 5.881,-5.999c0.762,0 2.08,0.151 2.621,0.301l-0,3.332c-0.282,-0.029 -0.776,-0.048 -1.393,-0.048c-1.976,0 -2.738,0.749 -2.738,2.692l-0,1.308l3.933,-0l-0.677,3.679l-3.261,-0l0,8.276c5.966,-0.72 10.586,-5.797 10.586,-11.955Z" style="fill-rule:nonzero;fill:currentColor;"/>
</svg>
