<?xml version="1.0" encoding="UTF-8" standalone="no"?>
<!DOCTYPE svg PUBLIC "-//W3C//DTD SVG 1.1//EN" "http://www.w3.org/Graphics/SVG/1.1/DTD/svg11.dtd">
<svg width="100%" height="100%" viewBox="0 0 24 24" version="1.1" xmlns="http://www.w3.org/2000/svg" style="fill-rule:evenodd;clip-rule:evenodd;stroke-linejoin:round;stroke-miterlimit:2;overflow:visible;">
    <path d="M12.005,5.847c-3.406,-0 -6.153,2.747 -6.153,6.153c0,3.406 2.747,6.153 6.153,6.153c3.406,0 6.154,-2.747 6.154,-6.153c-0,-3.406 -2.748,-6.153 -6.154,-6.153Zm0,10.153c-2.201,0 -4,-1.794 -4,-4c-0,-2.206 1.794,-4 4,-4c2.207,-0 4.001,1.794 4.001,4c-0,2.206 -1.8,4 -4.001,4Zm7.841,-10.405c-0,0.798 -0.643,1.435 -1.436,1.435c-0.798,0 -1.435,-0.642 -1.435,-1.435c0,-0.793 0.643,-1.435 1.435,-1.435c0.793,-0 1.436,0.642 1.436,1.435Zm4.075,1.457c-0.091,-1.923 -0.53,-3.626 -1.939,-5.029c-1.403,-1.403 -3.106,-1.842 -5.028,-1.939c-1.982,-0.112 -7.921,-0.112 -9.902,0c-1.918,0.091 -3.621,0.531 -5.029,1.934c-1.408,1.403 -1.842,3.106 -1.939,5.028c-0.112,1.982 -0.112,7.921 0,9.902c0.091,1.923 0.531,3.626 1.939,5.029c1.408,1.403 3.106,1.842 5.029,1.939c1.981,0.112 7.92,0.112 9.902,-0c1.922,-0.091 3.625,-0.531 5.028,-1.939c1.403,-1.403 1.843,-3.106 1.939,-5.029c0.112,-1.981 0.112,-7.915 0,-9.896Zm-2.56,12.022c-0.418,1.05 -1.226,1.859 -2.281,2.282c-1.58,0.626 -5.329,0.482 -7.075,0.482c-1.745,-0 -5.5,0.139 -7.074,-0.482c-1.05,-0.418 -1.858,-1.227 -2.281,-2.282c-0.627,-1.579 -0.482,-5.328 -0.482,-7.074c-0,-1.746 -0.14,-5.5 0.482,-7.074c0.417,-1.05 1.226,-1.859 2.281,-2.282c1.58,-0.626 5.329,-0.482 7.074,-0.482c1.746,0 5.5,-0.139 7.075,0.482c1.049,0.418 1.858,1.227 2.281,2.282c0.627,1.579 0.482,5.328 0.482,7.074c0,1.746 0.145,5.5 -0.482,7.074Z" style="fill-rule:nonzero;fill:currentColor;"/>
</svg>
