<?xml version="1.0" encoding="UTF-8" standalone="no"?>
<!DOCTYPE svg PUBLIC "-//W3C//DTD SVG 1.1//EN" "http://www.w3.org/Graphics/SVG/1.1/DTD/svg11.dtd">
<svg width="100%" height="100%" viewBox="0 0 24 24" version="1.1" xmlns="http://www.w3.org/2000/svg" style="fill-rule:evenodd;clip-rule:evenodd;stroke-linejoin:round;stroke-miterlimit:2;overflow:visible;">
    <path d="M22.501,9.84c-2.064,0.004 -4.079,-0.64 -5.757,-1.842l0,8.382c-0.001,4.18 -3.442,7.62 -7.622,7.62c-4.182,-0 -7.623,-3.441 -7.623,-7.623c-0,-4.181 3.441,-7.622 7.623,-7.622c0.351,-0 0.702,0.024 1.05,0.072l-0,4.215c-0.34,-0.107 -0.694,-0.161 -1.05,-0.161c-1.919,-0 -3.498,1.578 -3.498,3.497c0,1.918 1.579,3.497 3.498,3.497c1.917,-0 3.496,-1.577 3.497,-3.495l-0,-16.38l4.125,0c-0.002,0.349 0.028,0.697 0.089,1.041c0.29,1.546 1.205,2.907 2.527,3.759c0.932,0.616 2.024,0.944 3.141,0.943l0,4.097Z" style="fill-rule:nonzero;fill:currentColor;"/>
</svg>
