<?xml version="1.0" encoding="UTF-8" standalone="no"?>
<!DOCTYPE svg PUBLIC "-//W3C//DTD SVG 1.1//EN" "http://www.w3.org/Graphics/SVG/1.1/DTD/svg11.dtd">
<svg width="100%" height="100%" viewBox="0 0 24 24" version="1.1" xmlns="http://www.w3.org/2000/svg" style="fill-rule:evenodd;clip-rule:evenodd;stroke-linejoin:round;stroke-miterlimit:2;overflow:visible;">
    <path d="M23.499,6.204c-0.277,-1.041 -1.09,-1.858 -2.122,-2.135c-1.872,-0.505 -9.377,-0.505 -9.377,-0.505c0,-0 -7.505,-0 -9.377,0.505c-1.032,0.277 -1.845,1.094 -2.122,2.135c-0.501,1.885 -0.501,5.814 -0.501,5.814c0,-0 0,3.928 0.501,5.813c0.277,1.041 1.09,1.823 2.122,2.1c1.872,0.505 9.377,0.505 9.377,0.505c0,0 7.505,0 9.377,-0.505c1.032,-0.277 1.845,-1.063 2.122,-2.1c0.501,-1.885 0.501,-5.813 0.501,-5.813c0,-0 0,-3.929 -0.501,-5.814Zm-13.951,9.381l0,-7.135l6.27,3.568l-6.27,3.567Z" style="fill-rule:nonzero;fill:currentColor;"/>
</svg>
