<?xml version="1.0" encoding="UTF-8" standalone="no"?>
<!DOCTYPE svg PUBLIC "-//W3C//DTD SVG 1.1//EN" "http://www.w3.org/Graphics/SVG/1.1/DTD/svg11.dtd">
<svg width="100%" height="100%" viewBox="0 0 255 44" version="1.1" xmlns="http://www.w3.org/2000/svg" xmlns:xlink="http://www.w3.org/1999/xlink" xml:space="preserve" xmlns:serif="http://www.serif.com/" style="fill-rule:evenodd;clip-rule:evenodd;stroke-linejoin:round;stroke-miterlimit:2;">
    <g id="logo">
        <path d="M28.198,42.454C31.171,42.454 33.756,41.816 35.954,40.539C38.152,39.262 39.879,37.618 41.135,35.609C42.391,33.599 43.187,31.506 43.522,29.329C43.606,28.952 43.647,28.366 43.647,27.57C43.647,24.807 42.664,22.588 40.696,20.913C42.747,18.903 43.982,16.559 44.401,13.879C44.527,13.042 44.589,12.246 44.589,11.493C44.589,8.436 43.668,5.882 41.826,3.831C39.984,1.779 37.158,0.754 33.348,0.754L6.594,0.754L-0,42.454L28.198,42.454ZM13.754,26.628L30.71,26.628C31.338,26.628 31.788,26.827 32.06,27.225C32.333,27.622 32.406,28.177 32.28,28.889L32.092,30.082C32.008,30.794 31.757,31.359 31.338,31.778C30.92,32.197 30.396,32.406 29.768,32.406L12.812,32.406L13.754,26.628ZM16.266,10.865L31.778,10.865C32.364,10.865 32.783,11.064 33.034,11.461C33.285,11.859 33.369,12.414 33.285,13.126L33.097,14.256C33.013,14.926 32.762,15.47 32.343,15.889C31.924,16.308 31.422,16.517 30.836,16.517L15.324,16.517L16.266,10.865Z" style="fill:white;fill-rule:nonzero;"/>
        <path d="M59.285,42.454L64.686,32.594L80.387,32.594L82.71,42.454L94.768,42.454L84.657,0.754L70.715,0.754L47.353,42.454L59.285,42.454ZM75.614,12.874L78.126,22.546L70.15,22.546L75.614,12.874Z" style="fill:white;fill-rule:nonzero;"/>
        <path d="M102.43,29.329C102.346,29.789 102.305,30.438 102.305,31.275C102.305,33.829 103.11,36.006 104.722,37.807C106.334,39.607 108.491,40.957 111.191,41.858C113.891,42.758 116.875,43.208 120.14,43.208C126.169,43.208 131.183,42.056 135.181,39.754C139.18,37.451 141.577,33.892 142.372,29.077C142.498,28.198 142.561,27.382 142.561,26.628C142.561,22.734 140.991,20.023 137.85,18.495C134.71,16.967 130.377,16.203 124.85,16.203C123.762,16.203 122.883,16.182 122.213,16.14C120.915,16.056 119.973,15.952 119.387,15.826C117.754,15.491 116.937,14.863 116.937,13.942C116.937,12.519 117.921,11.451 119.889,10.739C121.396,10.279 123.239,10.048 125.416,10.048C127.509,10.048 129.309,10.373 130.817,11.022C132.324,11.671 132.973,12.623 132.763,13.879L132.512,15.449L143.754,15.449L144.005,13.879C144.131,13.167 144.193,12.498 144.193,11.87C144.193,9.358 143.429,7.212 141.901,5.432C140.373,3.653 138.311,2.303 135.715,1.382C133.119,0.461 130.21,-0 126.986,-0C121.166,-0 116.341,1.11 112.51,3.329C108.679,5.548 106.408,8.981 105.696,13.628C105.57,14.507 105.507,15.345 105.507,16.14C105.507,19.908 107.004,22.535 109.998,24.022C112.991,25.508 117.168,26.251 122.527,26.251C123.867,26.251 124.871,26.272 125.541,26.314C127.174,26.398 128.514,26.628 129.561,27.005C130.733,27.465 131.256,28.156 131.131,29.077C130.838,30.543 129.728,31.631 127.802,32.343C126.211,32.887 124.181,33.159 121.71,33.159C119.575,33.159 117.712,32.866 116.121,32.28C114.279,31.61 113.441,30.626 113.609,29.329L113.86,27.758L102.681,27.758L102.43,29.329Z" style="fill:white;fill-rule:nonzero;"/>
        <path d="M149.908,42.454L190.541,42.454L192.111,32.406L162.72,32.406L163.662,26.628L185.517,26.628L187.087,16.517L165.232,16.517L166.174,10.865L195.566,10.865L197.136,0.754L156.503,0.754L149.908,42.454Z" style="fill:white;fill-rule:nonzero;"/>
        <g id="line">
            <path d="M219.437,28.092L217.229,42.458L201.801,42.458C201.219,42.458 200.666,42.204 200.287,41.762C199.908,41.32 199.741,40.735 199.829,40.16C200.274,37.269 201.026,32.374 201.422,29.796C201.573,28.816 202.417,28.092 203.409,28.092C207.869,28.092 219.437,28.092 219.437,28.092Z" style="fill:rgb(0,101,239);"/>
            <path d="M237.19,28.092L234.982,42.458L217.229,42.458L219.437,28.092L237.19,28.092Z" style="fill:rgb(0,101,239);fill-opacity:0.9;"/>
            <path d="M252.62,28.092C253.202,28.092 253.754,28.346 254.133,28.787C254.512,29.228 254.679,29.813 254.59,30.388C254.144,33.288 253.387,38.211 252.992,40.782C252.844,41.746 252.014,42.458 251.039,42.458C246.6,42.458 234.982,42.458 234.982,42.458L237.19,28.092L252.62,28.092Z" style="fill:rgb(0,101,239);fill-opacity:0.8;"/>
        </g>
    </g>
</svg>
