<svg class="base-error-404" width="100%" height="100%" viewBox="0 0 337 322" version="1.1" xmlns="http://www.w3.org/2000/svg" xmlns:xlink="http://www.w3.org/1999/xlink" xml:space="preserve" xmlns:serif="http://www.serif.com/" style="fill-rule:evenodd;clip-rule:evenodd;stroke-linejoin:round;stroke-miterlimit:2;">
    <style>
        .base-error-404 {
            --base-border-color: #111c27;
            --base-caption-color: #ededed;
        }

        [data-theme-mode="dark"] .base-error-404 {
            --base-border-color: hsl(0deg 0% 75%);
            --base-caption-color: hsl(0deg 0% 100% / 10%);
        }
    </style>
    <g id="stars">
        <path d="M256.903,171.451l-0,-8.385c-0,-0.415 0.335,-0.75 0.75,-0.75c0.415,-0 0.75,0.335 0.75,0.75l-0,8.385l4.369,0c0.414,0 0.75,0.336 0.75,0.75c-0,0.415 -0.336,0.75 -0.75,0.75l-4.369,0l-0,8.388c-0,0.414 -0.335,0.75 -0.75,0.75c-0.415,-0 -0.75,-0.336 -0.75,-0.75l-0,-8.388l-4.369,0c-0.415,0 -0.75,-0.335 -0.75,-0.75c0,-0.414 0.335,-0.75 0.75,-0.75l4.369,0Z" style="fill:var(--base-border-color);fill-rule:nonzero;"/>
        <path d="M297.725,206.834l0,-8.386c0,-0.415 0.336,-0.75 0.75,-0.75c0.415,-0 0.75,0.335 0.75,0.75l0,8.386l4.369,0c0.415,0 0.75,0.335 0.75,0.75c0,0.415 -0.335,0.75 -0.75,0.75l-4.369,0l0,8.387c0,0.414 -0.335,0.75 -0.75,0.75c-0.414,-0 -0.75,-0.336 -0.75,-0.75l0,-8.387l-4.368,0c-0.415,0 -0.75,-0.335 -0.75,-0.75c-0,-0.415 0.335,-0.75 0.75,-0.75l4.368,0Z" style="fill:var(--base-border-color);fill-rule:nonzero;"/>
        <path d="M180.735,215.971l0,-3.767c0,-0.415 0.335,-0.75 0.75,-0.75c0.415,0 0.75,0.335 0.75,0.75l0,3.767l1.781,-0c0.414,-0 0.75,0.335 0.75,0.75c-0,0.414 -0.336,0.75 -0.75,0.75l-1.781,-0l0,3.767c0,0.414 -0.336,0.75 -0.75,0.75c-0.415,-0 -0.75,-0.335 -0.75,-0.75l0,-3.767l-1.781,-0c-0.415,-0 -0.75,-0.336 -0.75,-0.75c-0,-0.415 0.335,-0.75 0.75,-0.75l1.781,-0Z" style="fill:var(--base-border-color);fill-rule:nonzero;"/>
        <path d="M94.306,194.026l-0,-3.767c-0,-0.415 0.335,-0.75 0.75,-0.75c0.415,0 0.75,0.335 0.75,0.75l-0,3.767l1.78,0c0.415,0 0.75,0.336 0.75,0.75c0,0.415 -0.335,0.75 -0.75,0.75l-1.78,0l-0,3.767c-0,0.415 -0.335,0.75 -0.75,0.75c-0.415,-0 -0.75,-0.335 -0.75,-0.75l-0,-3.767l-1.781,0c-0.414,0 -0.75,-0.335 -0.75,-0.75c0,-0.414 0.336,-0.75 0.75,-0.75l1.781,0Z" style="fill:var(--base-border-color);fill-rule:nonzero;"/>
        <path d="M229.193,33.763l0,-3.767c0,-0.415 0.336,-0.75 0.75,-0.75c0.415,0 0.75,0.335 0.75,0.75l0,3.767l1.781,0c0.415,0 0.75,0.336 0.75,0.75c-0,0.415 -0.335,0.75 -0.75,0.75l-1.781,0l0,3.767c0,0.415 -0.335,0.75 -0.75,0.75c-0.414,-0 -0.75,-0.335 -0.75,-0.75l0,-3.767l-1.781,0c-0.415,0 -0.75,-0.335 -0.75,-0.75c0,-0.414 0.335,-0.75 0.75,-0.75l1.781,0Z" style="fill:var(--base-border-color);fill-rule:nonzero;"/>
        <path d="M284.387,283.696l0,-3.766c0,-0.415 0.336,-0.75 0.75,-0.75c0.415,-0 0.75,0.335 0.75,0.75l0,3.766l1.782,0c0.414,0 0.75,0.336 0.75,0.75c-0,0.415 -0.336,0.75 -0.75,0.75l-1.782,0l0,3.768c0,0.414 -0.336,0.75 -0.75,0.75c-0.414,-0 -0.75,-0.336 -0.75,-0.75l0,-3.768l-1.78,0c-0.415,0 -0.75,-0.335 -0.75,-0.75c-0,-0.414 0.335,-0.75 0.75,-0.75l1.78,0Z" style="fill:var(--base-border-color);fill-rule:nonzero;"/>
    </g>
    <path id="caption" d="M105.884,89.323l0,28.598l-14.299,-0l0,26.607l-32.579,-0l-0,-26.607l-59.006,-0l-0,-27.874c7.361,-12.428 12.217,-23.65 14.57,-33.666c2.353,-10.015 3.47,-22.866 3.349,-38.552l38.01,-0c0.482,22.081 -10.438,47.12 -32.761,75.114l36.924,-3.077l3.982,-52.128l27.511,0l0,51.585l14.299,0Z" style="fill:var(--base-caption-color);fill-rule:nonzero;"/>
    <path d="M166.881,16.019c16.169,-0 29.141,5.761 38.914,17.285c9.774,11.524 14.661,27.482 14.661,47.874c0,20.393 -4.887,36.351 -14.661,47.874c-9.773,11.524 -22.745,17.286 -38.914,17.286c-16.049,-0 -28.9,-5.762 -38.553,-17.286c-9.653,-11.523 -14.48,-27.481 -14.48,-47.874c0,-20.392 4.827,-36.35 14.48,-47.874c9.653,-11.524 22.504,-17.285 38.553,-17.285Zm-0,100.997c8.688,-0 14.208,-2.142 16.561,-6.426c2.353,-4.283 3.53,-14.087 3.53,-29.412c-0,-15.324 -1.177,-25.128 -3.53,-29.412c-2.353,-4.284 -7.873,-6.426 -16.561,-6.426c-8.447,0 -13.847,2.172 -16.2,6.516c-2.353,4.344 -3.529,14.118 -3.529,29.322c-0,15.204 1.176,24.978 3.529,29.322c2.353,4.344 7.753,6.516 16.2,6.516Z" style="fill:var(--base-caption-color);fill-rule:nonzero;"/>
    <path d="M336.839,89.323l-0,28.598l-14.299,-0l-0,26.607l-32.58,-0l-0,-26.607l-59.006,-0l0,-27.874c7.361,-12.428 12.218,-23.65 14.571,-33.666c2.353,-10.015 3.469,-22.866 3.348,-38.552l38.01,-0c0.483,22.081 -10.438,47.12 -32.761,75.114l36.924,-3.077l3.982,-52.128l27.512,0l-0,51.585l14.299,0Z" style="fill:var(--base-caption-color);fill-rule:nonzero;"/>
    <g id="character">
        <path id="green" d="M278.421,223.548c-4.815,-5.325 -25.162,1.642 -26.565,1.32c-1.41,-0.33 -23.032,-34.463 -23.032,-34.463l-21.638,17.04c0,0 15.623,18.705 19.943,24.623c4.32,5.917 6.03,13.372 7.65,16.89c1.62,3.51 4.02,4.657 8.302,4.35c4.283,-0.315 30.78,-13.92 34.523,-17.033c3.742,-3.105 5.632,-7.41 0.817,-12.727Zm-1.695,10.53c-6.75,5.917 -29.475,15.997 -32.317,16.305c-3.225,0.352 -6.225,-3.218 -4.515,-7.508c1.702,-4.29 30.3,-17.085 34.185,-16.11c1.635,0.405 2.677,1.395 3.33,2.408c1.027,1.575 0.727,3.667 -0.683,4.905Z" style="fill:#43d66f;fill-rule:nonzero;"/>
        <path id="green1" serif:id="green" d="M144.049,249.746l-16.334,33.833c-0,-0 5.028,9.522 7.485,12.224c2.457,2.702 12.292,10.669 11.155,16.096c-1.137,5.428 -3.538,9.141 -5.338,9.495c-1.801,0.354 -49.211,-27.629 -49.211,-27.629c0,0 1.943,-6.604 5.452,-10.238c3.508,-3.634 8.32,-8.034 10.795,-13.863c2.475,-5.829 5.771,-31.09 5.771,-31.09l30.225,11.172Z" style="fill:#43d66f;fill-rule:nonzero;"/>
        <path id="green2" serif:id="green" d="M254.12,83.209c0,-0 6.199,1.29 9.818,2.458c3.611,1.161 6.199,2.45 5.683,4.385c-0.524,1.943 -15.827,1.814 -17.564,2.883c-1.744,1.077 -18.019,12.678 -22.859,13.459c-1.138,0.182 -2.345,-1.213 -3.521,-3.452c-2.913,-5.554 -5.652,-16.319 -6.783,-21.092c-0.348,-1.479 -0.546,-2.382 -0.546,-2.382c-0.546,-2.382 5.554,-1.426 11.752,-3.618c6.199,-2.193 10.205,-13.3 13.042,-14.461c2.845,-1.169 15.242,-3.49 17.692,-3.49c2.451,0 2.588,0.645 2.588,0.645c-0,0 3.353,0 5.675,0.645c2.33,0.645 3.232,3.103 3.232,3.103c-0,-0 4.264,1.29 4.393,3.998c0.129,2.717 -10.85,3.103 -13.437,5.296c-2.58,2.2 -9.165,11.623 -9.165,11.623Z" style="fill:#43d66f;fill-rule:nonzero;"/>
        <path id="green3" serif:id="green" d="M46.141,143.001c-0.19,3.103 -6.972,10.849 -6.972,10.849c-0,0 -2.519,11.912 -2.906,15.06c-0.387,3.149 -4.263,7.284 -6.456,7.929c-2.193,0.645 -5.296,-3.103 -5.296,-3.103c-0,-0 -3.611,2.587 -5.554,0.258c-1.934,-2.321 -1.806,-4.256 -1.806,-4.256c0,-0 -4.393,0.645 -5.554,-1.814c-1.161,-2.45 -1.29,-6.457 -1.29,-6.457c0,0 -4.005,-2.063 -4.392,-4.392c-0.387,-2.322 2.716,-6.456 6.585,-10.842c3.877,-4.392 6.897,-23.208 11.176,-20.469c0,0 0.554,0.342 1.48,0.941c3.945,2.503 14.68,9.484 19.073,13.641c1.222,1.153 1.95,2.086 1.912,2.655Z" style="fill:#43d66f;fill-rule:nonzero;"/>
        <path id="green4" serif:id="green" d="M148.979,95.19l-0.809,0.196l-20.866,5.07c-1.272,0.314 -2.551,-0.487 -2.826,-1.774l-4.959,-22.782c-0.055,-0.243 -0.063,-0.487 -0.048,-0.722c0.111,-1.06 0.942,-1.962 2.072,-2.096l20.734,-2.299c1.122,-0.126 2.173,0.573 2.496,1.647l5.893,19.824c0.377,1.28 -0.393,2.622 -1.687,2.936Z" style="fill:#43d66f;fill-rule:nonzero;"/>
        <path id="border" d="M243.962,251.157c-1.572,-0 -3.076,-0.766 -4.101,-2.114c-1.348,-1.773 -1.59,-4.122 -0.664,-6.445c1.933,-4.876 30.897,-17.605 35.064,-16.56c1.571,0.389 2.878,1.333 3.778,2.728c1.218,1.868 0.867,4.395 -0.819,5.876l-0,-0c-6.766,5.932 -29.572,16.144 -32.732,16.486c-0.175,0.02 -0.351,0.029 -0.526,0.029Zm-140.004,-196.622c0.305,-1.3 1.275,-4.418 3.678,-5.219c2.859,-0.949 19.885,0.219 22.915,1.097c2.797,0.811 3.411,3.504 3.546,4.686c0.079,0.026 0.167,0.055 0.263,0.087l0.174,0l0.103,0.09c3.307,1.064 18.075,5.891 22.422,8.703c4.606,2.963 29.61,21.167 32.676,23.4c2.023,-0.432 13.016,-2.781 22.655,-4.881c2.15,-0.463 4.231,-0.919 6.147,-1.338l0.914,-0.201l0.17,0.717c1.054,4.448 3.817,15.39 6.715,20.92l0.376,0.719l-0.746,0.319c-4.028,1.721 -8.176,3.452 -11.995,5.004c-8.671,3.518 -19.553,7.685 -22.474,7.685c-0.035,-0 -0.068,-0.001 -0.1,-0.003c-5.7,-0.227 -13.315,-3.796 -16.567,-5.32c-2.757,-1.296 -19.178,-10.655 -24.654,-13.784c4.456,12.628 11.593,31.131 13.722,32.248c1.022,0.539 5.695,0.994 10.642,1.477c10.414,1.015 24.675,2.404 29.162,6.288c6.644,5.757 25.039,50.974 25.819,52.895l0.212,0.522l-22.543,17.744l-0.461,-0.351c-0.114,-0.085 -11.422,-8.712 -20.584,-18.785c-7.949,-8.755 -12.743,-14.917 -13.878,-16.402l-11.588,1.335c2.986,3.834 11.829,15.708 10.462,20.173c-1.468,4.812 -25.402,53.636 -26.42,55.712l-0.296,0.609l-31.578,-11.666l0.273,-0.709c6.543,-17.026 13.217,-36.15 12.798,-38.322c-0.23,-0.29 -0.809,-0.941 -1.59,-1.818c-5.36,-6.022 -21.673,-24.346 -25.106,-39.012c-0.847,-3.626 -1.643,-6.903 -2.386,-9.954c-2.722,-11.199 -4.689,-19.29 -5.753,-30.467c-1.069,-11.359 -0.529,-20.633 -0.273,-23.859c-6.613,2.644 -20.926,8.956 -23.317,12.754c-5.46,8.62 -10.926,16.883 -15.393,23.267c-2.766,3.959 -5.217,7.296 -7.285,9.916l-0.509,0.643l-0.596,-0.564c-4.486,-4.245 -15.643,-11.445 -18.955,-13.551l-0.587,-0.372l0.328,-0.613c0.801,-1.501 1.681,-3.135 2.615,-4.856c7.866,-14.423 17.955,-31.735 21.52,-35.664c5.348,-5.897 37.933,-29.226 55.327,-31.299Zm165.687,173.792c-8.878,2.799 -27.763,11.571 -29.054,14.826c-0.727,1.823 -0.558,3.64 0.464,4.983c0.817,1.075 2.038,1.638 3.272,1.502c0.407,-0.044 1.228,-0.293 2.355,-0.704c-0.214,-0.046 -0.407,-0.183 -0.514,-0.394l-3.323,-6.518c-0.188,-0.369 -0.042,-0.821 0.328,-1.009c0.369,-0.19 0.82,-0.042 1.008,0.328l3.324,6.518c0.134,0.264 0.098,0.571 -0.07,0.793c5.102,-1.95 14.902,-6.445 22.036,-10.579c-0.104,0.049 -0.215,0.074 -0.324,0.074c-0.273,-0 -0.536,-0.15 -0.669,-0.41l-3.322,-6.519c-0.188,-0.369 -0.042,-0.821 0.328,-1.009c0.369,-0.189 0.82,-0.042 1.008,0.328l3.323,6.519c0.172,0.338 0.064,0.745 -0.238,0.955c1.29,-0.749 2.491,-1.487 3.558,-2.194c-0.078,-0.064 -0.145,-0.145 -0.193,-0.241l-3.324,-6.519c-0.122,-0.24 -0.103,-0.515 0.027,-0.73Zm-135.639,-171.672c-9.223,-1.753 -28.222,-0.747 -29.332,-0.687l-0.02,0.001c-16.916,1.602 -49.587,25.003 -54.912,30.874c-3.483,3.837 -13.488,21.026 -21.313,35.373c-0.806,1.485 -1.574,2.906 -2.283,4.232c3.741,2.391 13.357,8.659 17.99,12.798c1.943,-2.494 4.205,-5.588 6.734,-9.209c4.455,-6.367 9.909,-14.609 15.356,-23.209c3.319,-5.271 24.278,-13.45 25.169,-13.796l1.15,-0.446l-0.007,0.06c6.49,-2.313 10.758,-5.799 12.695,-10.373c2.903,-6.858 -0.494,-13.926 -0.529,-13.998c-0.182,-0.371 -0.029,-0.821 0.342,-1.003c0.371,-0.184 0.82,-0.031 1.003,0.34c0.155,0.312 3.737,7.733 0.572,15.231c-2.173,5.146 -6.968,8.996 -14.256,11.451c-0.201,2.236 -0.942,12.03 0.212,24.299c1.054,11.069 3.011,19.116 5.718,30.254c0.743,3.056 1.541,6.336 2.389,9.967c3.346,14.295 19.468,32.404 24.766,38.356c0.93,1.044 1.491,1.674 1.718,1.98c0.433,0.581 1.161,1.556 -5.714,20.929c-2.804,7.896 -5.766,15.707 -6.662,18.055l28.883,10.67c2.825,-5.768 24.687,-50.464 26.034,-54.882c0.349,-1.14 -0.288,-3.155 -1.476,-5.558c-2.963,0.63 -17.668,3.414 -30.019,-0.505c-11.789,-3.74 -19.475,-20.125 -21.469,-24.832c-0.153,-0.362 0.257,-0.699 0.58,-0.477c1.909,1.315 6.414,4.164 14.276,7.773c9.518,4.37 23.15,3.379 26.516,3.05l-0.294,-0.367l15.128,-1.743l0.259,0.347c0.048,0.065 4.977,6.645 14.047,16.636c8.024,8.822 17.722,16.532 19.922,18.245l20.74,-16.325c-2.109,-5.155 -19.191,-46.6 -25.198,-51.804c-4.125,-3.571 -18.688,-4.99 -28.325,-5.929c-6.331,-0.616 -9.973,-0.997 -11.196,-1.641c-3.422,-1.797 -13.182,-29.453 -15.104,-34.979l-0.659,-1.893l1.74,0.996c0.231,0.133 23.097,13.226 26.291,14.726c3.169,1.485 10.591,4.965 15.986,5.18c1.891,0.085 9.919,-2.69 21.953,-7.574c3.578,-1.455 7.447,-3.067 11.235,-4.68c-2.691,-5.551 -5.186,-15.166 -6.309,-19.829c-1.77,0.388 -3.67,0.803 -5.625,1.225c-10.612,2.311 -22.864,4.926 -22.986,4.952l-0.329,0.071l-0.27,-0.198c-0.28,-0.204 -28.108,-20.481 -32.877,-23.55c-4.286,-2.771 -19.943,-7.851 -22.126,-8.552l-0.016,0l-0.098,-0.032Zm117.293,190.134c-0.273,-0 -0.536,-0.149 -0.669,-0.41l-3.323,-6.519c-0.189,-0.369 -0.042,-0.82 0.327,-1.008c0.369,-0.189 0.821,-0.042 1.009,0.327l3.323,6.519c0.189,0.369 0.042,0.821 -0.327,1.009c-0.109,0.056 -0.225,0.082 -0.34,0.082Zm4.462,-2.161c-0.273,0 -0.536,-0.149 -0.669,-0.409l-3.322,-6.519c-0.188,-0.369 -0.042,-0.822 0.328,-1.009c0.369,-0.189 0.82,-0.042 1.008,0.328l3.323,6.519c0.188,0.369 0.042,0.821 -0.328,1.008c-0.109,0.056 -0.226,0.082 -0.34,0.082Zm4.463,-2.161c-0.273,0 -0.536,-0.149 -0.669,-0.409l-3.323,-6.519c-0.189,-0.369 -0.042,-0.821 0.327,-1.009c0.37,-0.189 0.821,-0.042 1.009,0.328l3.323,6.519c0.189,0.369 0.042,0.82 -0.327,1.009c-0.11,0.055 -0.226,0.081 -0.34,0.081Zm4.462,-2.16c-0.273,0 -0.537,-0.149 -0.669,-0.409l-3.324,-6.519c-0.188,-0.369 -0.042,-0.821 0.328,-1.009c0.37,-0.19 0.821,-0.042 1.009,0.328l3.323,6.519c0.188,0.369 0.042,0.82 -0.328,1.009c-0.108,0.054 -0.225,0.081 -0.339,0.081Zm9.637,-5.304c0.73,-0.52 1.372,-1.019 1.908,-1.488c1.129,-0.991 1.364,-2.681 0.548,-3.932c-0.701,-1.087 -1.669,-1.789 -2.881,-2.089c-0.101,-0.027 -0.228,-0.039 -0.379,-0.039c-0.616,0 -1.625,0.21 -2.914,0.582c0.146,0.068 0.271,0.184 0.35,0.339l3.323,6.519c0.018,0.036 0.033,0.071 0.045,0.108Zm-31.75,-5.054c-0.283,0 -0.553,-0.16 -0.681,-0.433c-0.174,-0.375 -0.013,-0.822 0.363,-0.996l9.281,-4.333c0.376,-0.175 0.822,-0.014 0.997,0.362c0.174,0.375 0.013,0.822 -0.363,0.997l-9.281,4.333c-0.103,0.048 -0.211,0.07 -0.316,0.07Zm8.19,-157.482c-0.209,0 -0.417,-0.087 -0.566,-0.257c-0.271,-0.312 -0.239,-0.786 0.073,-1.058c0.462,-0.404 11.748,-10.103 22.381,-9.834c0.415,0.011 0.742,0.355 0.732,0.768c-0.01,0.413 -0.368,0.736 -0.768,0.732c-10.044,-0.248 -21.249,9.369 -21.358,9.465c-0.144,0.123 -0.32,0.184 -0.494,0.184Zm-2.325,-7.36c-0.276,-0 -0.543,-0.154 -0.672,-0.419c-0.183,-0.372 -0.031,-0.821 0.34,-1.004c0.378,-0.187 9.457,-4.782 15.289,-6.078c0.404,-0.084 0.805,0.166 0.895,0.57c0.089,0.404 -0.166,0.805 -0.57,0.895c-5.655,1.256 -14.86,5.913 -14.951,5.958c-0.106,0.053 -0.22,0.078 -0.331,0.078Zm-116.041,-10.853c-0.283,-0.914 -0.905,-2.003 -2.267,-2.399c-3.066,-0.885 -19.683,-1.895 -22.019,-1.109c-1.388,0.463 -2.204,2.357 -2.577,3.675c2.031,-0.1 6.847,-0.304 12.24,-0.304c5.019,-0 10.538,0.177 14.779,0.78c-0.034,-0.186 -0.081,-0.396 -0.148,-0.616l-0.008,-0.027Z" style="fill:var(--base-border-color);fill-rule:nonzero;"/>
        <path id="border1" serif:id="border" d="M109.379,265.912c-0.09,0 -0.181,-0.015 -0.27,-0.049c-0.386,-0.149 -0.579,-0.583 -0.43,-0.97c2.856,-7.423 4.38,-26.189 4.394,-26.377c0.033,-0.413 0.394,-0.72 0.807,-0.689c0.413,0.033 0.722,0.395 0.689,0.807c-0.063,0.779 -1.557,19.172 -4.49,26.798c-0.115,0.298 -0.4,0.48 -0.7,0.48Zm112.345,-40.019c-0.217,0 -0.432,-0.094 -0.58,-0.274l-14.539,-17.7c-0.263,-0.321 -0.217,-0.793 0.103,-1.056c0.321,-0.264 0.795,-0.215 1.056,0.104l14.539,17.701c0.263,0.32 0.217,0.792 -0.103,1.055c-0.141,0.115 -0.309,0.17 -0.476,0.17Zm-74.872,-125.516l-22.994,5.956c-1.357,0.354 -2.707,-0.549 -3.005,-2.001l-5.258,-25.764c-0.314,-1.53 0.682,-3.013 2.142,-3.186l1.734,-0.204c-0.015,0.236 -0.007,0.479 0.048,0.723l4.959,22.782c0.275,1.287 1.554,2.087 2.826,1.773l20.866,-5.069l0.471,1.679c0.408,1.443 -0.408,2.958 -1.789,3.311Zm38.001,2.641c-0.022,-0 -0.045,-0.001 -0.069,-0.003c-0.412,-0.038 -0.716,-0.402 -0.678,-0.816c0.407,-4.48 4.594,-13.926 4.773,-14.326c0.168,-0.379 0.61,-0.55 0.989,-0.38c0.379,0.168 0.548,0.611 0.38,0.989c-0.043,0.096 -4.264,9.619 -4.648,13.853c-0.036,0.389 -0.363,0.683 -0.747,0.683Zm-52.163,-49.215c-0.331,-0 -0.634,-0.222 -0.724,-0.556c-0.107,-0.401 0.131,-0.812 0.531,-0.919c0.165,-0.045 16.492,-4.607 17.463,-20.545c0.666,-10.937 -4.936,-27.954 -23.098,-30.009c-11.406,-1.295 -22.701,2.016 -29.475,8.633c-5.259,5.134 -7.664,12.045 -6.957,19.984c1.54,17.303 15.176,20.291 15.313,20.319c0.406,0.083 0.669,0.48 0.585,0.885c-0.083,0.406 -0.482,0.667 -0.885,0.585c-0.149,-0.03 -14.869,-3.252 -16.508,-21.655c-0.748,-8.403 1.812,-15.731 7.403,-21.191c7.089,-6.922 18.85,-10.391 30.692,-9.05c19.201,2.172 25.127,20.082 24.426,31.591c-1.037,17.031 -18.398,21.856 -18.573,21.902c-0.063,0.017 -0.128,0.026 -0.193,0.026Zm-37.537,-26.152c-0.386,-0 -0.713,-0.296 -0.746,-0.687c-1.102,-13.085 7.056,-16.64 7.404,-16.784c0.382,-0.16 0.821,0.021 0.981,0.403c0.159,0.383 -0.021,0.821 -0.402,0.98c-0.322,0.138 -7.493,3.342 -6.488,15.275c0.035,0.413 -0.272,0.775 -0.684,0.81c-0.022,0.002 -0.044,0.003 -0.065,0.003Z" style="fill:var(--base-border-color);fill-rule:nonzero;"/>
        <path id="border2" serif:id="border" d="M86.705,164.676c-3.71,-0 -7.485,-0.373 -10.45,-1.495c-8.802,-3.334 -6.803,-53.501 -6.547,-59.21c0.019,-0.414 0.379,-0.743 0.783,-0.716c0.414,0.018 0.734,0.369 0.716,0.783c-0.989,21.986 -0.32,55.506 5.579,57.74c8.244,3.124 23.894,-0.002 24.051,-0.033c0.406,-0.083 0.802,0.179 0.884,0.585c0.083,0.406 -0.179,0.802 -0.585,0.884c-0.432,0.089 -7.309,1.462 -14.431,1.462Zm10.887,-12.369l-2.17,-8.968l0.534,-0.267c0.154,-0.077 15.643,-7.774 34.726,-13.207c19.132,-5.448 29.471,-5.14 29.9,-5.121l0.391,0.014l3.883,6.011l-1.245,0.105c-0.149,0.014 -15.159,1.332 -33.544,7.768c-18.431,6.45 -31.496,13.161 -31.626,13.228l-0.849,0.437Zm-0.429,-8.155l1.441,5.956c3.197,-1.589 15.113,-7.334 30.968,-12.884c15.537,-5.439 28.703,-7.26 32.683,-7.717l-2.112,-3.269c-2.046,-0 -12.193,0.268 -29.05,5.069c-16.957,4.828 -31.054,11.455 -33.93,12.845Z" style="fill:var(--base-border-color);fill-rule:nonzero;"/>
        <circle id="red-dot" cx="79.394" cy="142.808" r="3.407" style="fill:#ff6c6c;"/>
        <path id="border3" serif:id="border" d="M81.13,149.725c1.88,0 3.406,1.527 3.406,3.407c0,1.88 -1.526,3.406 -3.406,3.406c-1.88,0 -3.407,-1.526 -3.407,-3.406c0,-1.88 1.527,-3.407 3.407,-3.407Zm-29.643,-19.26c-2.511,3.594 -5.023,7.047 -7.259,9.881c-4.395,-4.16 -15.131,-11.136 -19.07,-13.64c0.8,-1.498 1.679,-3.131 2.613,-4.849l23.716,8.608Zm174.187,-27.522c-3.822,1.632 -7.95,3.359 -11.984,4.999l-1.138,-24.712c2.221,-0.479 4.371,-0.95 6.342,-1.382c1.129,4.772 3.868,15.539 6.78,21.095Z" style="fill:var(--base-border-color);"/>
        <path id="green5" serif:id="green" d="M144.88,124.107c-0,-0 1.202,10.419 4.207,10.519c3.006,0.101 16.33,-2.604 15.93,-5.259c-0.401,-2.655 -2.605,-6.762 -4.408,-7.965c-1.804,-1.202 -15.771,-0.417 -15.729,2.705Z" style="fill:#43d66f;fill-rule:nonzero;"/>
    </g>
    <g id="ball">
        <circle cx="189.563" cy="274.447" r="27.7" style="fill:#ff6c6c;"/>
        <path d="M161.864,277.106c-0.311,0 -0.602,-0.194 -0.709,-0.505c-0.136,-0.39 0.072,-0.818 0.463,-0.954c28.87,-10 28.61,-28.651 28.605,-28.839c-0.015,-0.414 0.31,-0.76 0.723,-0.774c0.426,-0.027 0.761,0.309 0.775,0.722c0.008,0.198 0.368,19.924 -29.611,30.31c-0.082,0.027 -0.165,0.04 -0.246,0.04Z" style="fill:#363634;fill-rule:nonzero;"/>
        <path d="M167.567,286.058c-2.046,0 -3.461,-0.165 -3.66,-0.19c-0.411,-0.05 -0.703,-0.424 -0.652,-0.835c0.05,-0.412 0.438,-0.71 0.835,-0.653c0.168,0.019 16.797,1.938 20.829,-8.298c2.832,-7.191 10.842,-13.77 18.629,-15.302c5.061,-0.998 9.388,0.203 12.516,3.47c0.287,0.299 0.277,0.774 -0.023,1.06c-0.297,0.288 -0.772,0.277 -1.059,-0.022c-3.485,-3.637 -7.985,-3.659 -11.144,-3.036c-7.328,1.442 -14.861,7.624 -17.523,14.379c-3.248,8.243 -13.264,9.427 -18.748,9.427Z" style="fill:#363634;fill-rule:nonzero;"/>
        <path d="M188.744,302.875c-0.051,0 -0.103,-0.005 -0.156,-0.015c-0.405,-0.086 -0.664,-0.485 -0.578,-0.89c0.043,-0.201 4.523,-20.104 28.371,-21.489c0.419,-0.028 0.768,0.292 0.792,0.705c0.024,0.413 -0.292,0.767 -0.705,0.792c-22.717,1.32 -26.95,20.113 -26.989,20.303c-0.076,0.353 -0.387,0.594 -0.735,0.594Z" style="fill:#363634;fill-rule:nonzero;"/>
        <path d="M198.049,268.591c3.978,-2.099 7.858,-2.57 8.658,-1.051c0.801,1.518 -1.778,4.454 -5.756,6.553c-3.978,2.098 -7.858,2.569 -8.659,1.051c-0.801,-1.518 1.779,-4.455 5.757,-6.553Z" style="fill:#363634;"/>
        <ellipse cx="170.727" cy="266.373" rx="2.338" ry="1.802" style="fill:#363634;"/>
    </g>
    <g id="satellite">
        <path d="M36.809,249.535c-1.965,5.348 -7.41,8.265 -12.173,6.518c-4.755,-1.748 -7.02,-7.5 -5.055,-12.848c1.965,-5.347 7.41,-8.265 12.173,-6.517c4.755,1.747 7.02,7.5 5.055,12.847Z" style="fill:var(--base-border-color);fill-rule:nonzero;"/>
        <path d="M33.284,230.996l0.195,-4.67c0.018,-0.414 0.389,-0.734 0.781,-0.718c0.414,0.017 0.735,0.367 0.718,0.781l-0.212,5.074l5.743,1.933l0.08,-4.615c0.008,-0.41 0.342,-0.737 0.75,-0.737l0.014,0c0.414,0.008 0.744,0.349 0.736,0.764l-0.088,5.09l28.747,9.673c4.373,1.473 7.851,4.587 9.793,8.772c1.943,4.187 2.077,8.856 0.376,13.149c-0.285,0.715 -0.608,1.395 -0.96,2.022c-1.502,2.679 -3.719,4.887 -6.412,6.387c-0.115,0.064 -0.24,0.095 -0.364,0.095c-0.264,-0 -0.518,-0.139 -0.656,-0.386c-0.202,-0.361 -0.071,-0.818 0.291,-1.02c2.45,-1.363 4.466,-3.372 5.833,-5.809c0.32,-0.571 0.614,-1.19 0.874,-1.843c1.547,-3.904 1.425,-8.154 -0.342,-11.964c-1.767,-3.807 -4.932,-6.641 -8.911,-7.981l-36.512,-12.286l-0.009,-0.003c-7.654,-2.577 -16.069,1.521 -18.751,9.139c-1.324,3.744 -1.109,7.779 0.603,11.361c1.711,3.582 4.714,6.284 8.456,7.605l14.25,5.034c0.391,0.139 0.596,0.567 0.458,0.957c-0.139,0.391 -0.567,0.593 -0.957,0.458l-14.25,-5.034c-4.12,-1.455 -7.426,-4.429 -9.311,-8.373c-1.885,-3.945 -2.12,-8.387 -0.664,-12.508c2.843,-8.073 11.534,-12.556 19.701,-10.347Z" style="fill:var(--base-border-color);fill-rule:nonzero;"/>
        <path d="M42.972,292.71l-6.58,-2.257c-2.634,-0.902 -4.116,-3.621 -3.448,-6.324l6.628,-26.836c0.369,-1.494 1.365,-2.756 2.734,-3.46c1.368,-0.705 2.974,-0.787 4.406,-0.218l24.668,9.765c2.504,0.99 3.878,3.703 3.196,6.308l-3.028,11.569c0.056,0.156 0.061,0.331 0.002,0.499c-0.044,0.128 -0.12,0.236 -0.216,0.319l-3.435,13.125c-0.375,1.43 -1.336,2.651 -2.64,3.35c-0.782,0.418 -1.651,0.631 -2.524,0.631c-0.582,-0 -1.167,-0.095 -1.726,-0.287l-18.008,-6.174c-0.009,-0.003 -0.019,-0.007 -0.029,-0.01Zm24.491,-1.777l-8.987,-3.097l-2.174,7.858l5.193,1.781c1.019,0.349 2.104,0.262 3.054,-0.248c0.949,-0.51 1.624,-1.364 1.897,-2.407l1.017,-3.887Zm-23.321,0.592l10.739,3.682l2.174,-7.86l-10.735,-3.698l-2.178,7.876Zm-8.617,-11.594l-1.125,4.558c-0.48,1.942 0.585,3.896 2.478,4.544l5.843,2.004l2.179,-7.877l-9.375,-3.229Zm23.351,6.458l8.968,3.089l1.971,-7.532l-8.858,-3.082l-2.081,7.525Zm-12.155,-4.188l10.734,3.698l2.083,-7.529l-10.725,-3.732l-2.092,7.563Zm-10.835,-3.732l9.414,3.243l2.093,-7.568l-9.612,-3.345l-1.895,7.67Zm25.472,-1.054l8.838,3.076l1.937,-7.402l-8.738,-3.041l-2.037,7.367Zm-12.145,-4.226l10.725,3.732l2.038,-7.367l-10.725,-3.732l-2.038,7.367Zm-11.071,-3.852l9.652,3.358l2.038,-7.367l-9.853,-3.428l-1.837,7.437Zm27.301,-6.695l-1.647,5.958l8.718,3.033l0.609,-2.325c0.49,-1.873 -0.497,-3.822 -2.297,-4.535l-5.383,-2.131Zm-13.792,1.732l10.725,3.732l1.665,-6.019l-10.597,-4.195l-1.793,6.482Zm0.391,-7.037l-5.883,-2.329c-0.454,-0.178 -0.932,-0.268 -1.41,-0.268c-0.605,0 -1.207,0.143 -1.757,0.426c-0.984,0.507 -1.7,1.413 -1.965,2.487l-0.687,2.784l9.892,3.443l1.81,-6.543Zm-25.868,-63.45l0.854,-3.456c0.368,-1.494 1.365,-2.756 2.734,-3.461c1.37,-0.705 2.976,-0.786 4.406,-0.219l24.667,9.765c2.505,0.992 3.879,3.704 3.197,6.309l-3.028,11.568c0.056,0.156 0.061,0.332 0.002,0.501c-0.044,0.128 -0.121,0.237 -0.217,0.32l-3.434,13.123c-0.375,1.43 -1.336,2.651 -2.639,3.35c-0.782,0.418 -1.651,0.631 -2.524,0.631c-0.582,-0 -1.167,-0.095 -1.727,-0.287l-17.997,-6.17l-0.018,-0.006c-0.006,-0.002 -0.012,-0.004 -0.018,-0.006l-0.013,-0.005l-6.572,-2.253c-2.632,-0.904 -4.114,-3.622 -3.448,-6.324l0,-0l5.775,-23.38Zm28.745,30.183l-8.987,-3.096l-2.174,7.858l5.194,1.78c1.02,0.35 2.106,0.263 3.055,-0.247c0.95,-0.51 1.623,-1.365 1.895,-2.408l1.017,-3.887Zm-23.321,0.592l10.739,3.682l2.174,-7.86l-10.735,-3.698l-2.178,7.876Zm-8.616,-11.594l-1.126,4.559c-0.479,1.942 0.586,3.895 2.478,4.545l5.843,2.003l2.178,-7.878l-9.373,-3.229Zm23.35,6.457l8.968,3.089l1.971,-7.531l-8.858,-3.082l-2.081,7.524Zm-12.155,-4.187l10.735,3.698l2.082,-7.528l-10.726,-3.733l-2.091,7.563Zm-10.834,-3.732l9.413,3.243l2.093,-7.567l-9.612,-3.345l-1.894,7.669Zm25.471,-1.053l8.838,3.075l1.938,-7.403l-8.738,-3.04l-2.038,7.368Zm-12.145,-4.226l10.726,3.732l2.038,-7.368l-10.727,-3.732l-2.037,7.368Zm-11.071,-3.852l9.651,3.358l2.038,-7.368l-9.852,-3.428l-1.837,7.438Zm27.302,-6.695l-1.647,5.957l8.717,3.033l0.609,-2.325c0.491,-1.873 -0.497,-3.822 -2.296,-4.534l-5.383,-2.131Zm-13.793,1.731l10.726,3.732l1.665,-6.018l-10.598,-4.196l-1.793,6.482Zm0.39,-7.037l-5.882,-2.328c-1.029,-0.407 -2.182,-0.35 -3.166,0.156c-0.984,0.508 -1.701,1.415 -1.965,2.488l-0.688,2.785l9.892,3.442l1.809,-6.543Z" style="fill:var(--base-border-color);fill-rule:nonzero;"/>
    </g>
</svg>
